<svg width="54" height="48" fill="none" xmlns="http://www.w3.org/2000/svg"><path d="M49.48 40H2.595c-.915 0-1.35-1.127-.67-1.741L43.475.634a.962.962 0 0 1 1.356.045c9.158 9.955 7.68 29.258 5.614 38.557a.981.981 0 0 1-.965.764Z" fill="#F7C744"/><path d="M49.648 39H7.602c-.916 0-1.35-1.13-.67-1.743L44.23 3.63c.392-.354.995-.343 1.351.047 8.185 8.95 6.886 26.179 5.031 34.557a.983.983 0 0 1-.964.766Z" fill="#FED132"/><path d="M3 40h47.369c2.073-8.708 3.828-28.5-5.742-38" stroke="#141421" stroke-width="4" stroke-linecap="round"/><path d="M15 45a3 3 0 1 0 6 0h-6Zm0-13v13h6V32h-6ZM34 43a2 2 0 1 0 4 0h-4Zm0-13v13h4V30h-4ZM41 46a2 2 0 1 0 4 0h-4Zm0-13v13h4V33h-4Z" fill="#FED132"/><circle cx="24" cy="31" r="4" fill="#E15A33"/><circle cx="40" cy="14" r="2" fill="#E15A33"/><circle cx="35" cy="18" r="2" fill="#F08A7B"/><circle cx="39" cy="29" r="4" stroke="#F1F1EF" stroke-width="4"/></svg>